<?xml version="1.0" standalone="no"?>
<!DOCTYPE svg PUBLIC "-//W3C//DTD SVG 20010904//EN"
 "http://www.w3.org/TR/2001/REC-SVG-20010904/DTD/svg10.dtd">
<svg version="1.0" xmlns="http://www.w3.org/2000/svg"
 width="512.000000pt" height="512.000000pt" viewBox="0 0 512.000000 512.000000"
 preserveAspectRatio="xMidYMid meet">
<metadata>
Created by potrace 1.14, written by Peter Selinger 2001-2017
</metadata>
<g transform="translate(0.000000,512.000000) scale(0.100000,-0.100000)"
fill="#000000" stroke="none">
<path d="M3425 4913 c-43 -9 -132 -48 -170 -74 -22 -15 -279 -265 -571 -555
-553 -552 -555 -554 -593 -674 -35 -112 -12 -272 54 -375 19 -30 83 -103 141
-160 l105 -105 509 506 c279 278 511 506 515 506 4 0 144 -136 311 -301 l304
-302 -514 -510 -513 -510 124 -120 c140 -137 198 -171 325 -191 97 -15 184 -1
278 45 58 28 118 84 584 546 285 284 538 542 562 574 108 144 113 369 14 519
-28 42 -1030 1050 -1092 1098 -15 11 -58 35 -95 52 -59 27 -81 31 -163 33 -52
1 -104 1 -115 -2z"/>
<path d="M3064 3424 c-28 -11 -66 -32 -85 -47 -19 -15 -338 -332 -710 -704
-630 -632 -677 -682 -693 -731 -56 -163 30 -343 187 -396 76 -26 173 -19 242
17 37 19 224 199 738 710 599 597 690 692 713 741 77 169 -16 368 -196 420
-69 20 -130 17 -196 -10z"/>
<path d="M1353 2864 c-96 -25 -153 -63 -267 -174 -323 -316 -955 -950 -978
-980 -14 -19 -38 -66 -53 -105 -24 -60 -28 -84 -28 -165 0 -102 20 -172 71
-255 20 -33 848 -866 1048 -1054 100 -94 195 -130 336 -127 102 3 169 23 247
75 73 49 1088 1069 1121 1126 86 152 79 357 -18 496 -17 24 -77 90 -134 146
l-103 103 -511 -511 -511 -510 -309 306 -309 306 513 511 513 512 -98 98
c-111 112 -192 171 -267 194 -70 21 -199 26 -263 8z"/>
</g>
</svg>
